<svg width="167" height="37" viewBox="0 0 167 37" fill="none" xmlns="http://www.w3.org/2000/svg">
<path d="M36.8491 18.5C36.8491 28.7173 28.6001 37 18.4245 37C8.24895 37 0 28.7173 0 18.5C0 8.28273 8.24895 0 18.4245 0C28.6001 0 36.8491 8.28273 36.8491 18.5Z" fill="white"/>
<path d="M73.6982 18.5C73.6982 28.7173 65.4492 37 55.2736 37C45.098 37 36.8491 28.7173 36.8491 18.5C36.8491 8.28273 45.098 0 55.2736 0C65.4492 0 73.6982 8.28273 73.6982 18.5Z" fill="white"/>
<path d="M84.8165 30.8333V4.93333H93.5129V30.8333H84.8165Z" fill="white"/>
<path d="M98.1088 30.8333V4.93333H105.257L115.575 21.8423H111.817L121.84 4.93333H128.988L129.062 30.8333H121.139L121.066 16.9213H122.319L115.465 28.5023H111.632L104.484 16.9213H106.031V30.8333H98.1088Z" fill="white"/>
<path d="M143.294 31.4253C141.132 31.4253 139.044 31.1787 137.029 30.6853C135.015 30.192 133.357 29.5507 132.055 28.7613L134.855 22.3973C136.083 23.1127 137.447 23.6923 138.945 24.1363C140.468 24.5557 141.942 24.7653 143.367 24.7653C144.203 24.7653 144.854 24.716 145.32 24.6173C145.812 24.494 146.168 24.3337 146.389 24.1363C146.61 23.9143 146.721 23.6553 146.721 23.3593C146.721 22.8907 146.463 22.5207 145.947 22.2493C145.431 21.978 144.743 21.756 143.883 21.5833C143.048 21.386 142.127 21.1887 141.119 20.9913C140.112 20.7693 139.093 20.4857 138.061 20.1403C137.054 19.795 136.12 19.3387 135.26 18.7713C134.425 18.204 133.75 17.464 133.234 16.5513C132.718 15.614 132.46 14.4547 132.46 13.0733C132.46 11.47 132.902 10.0147 133.787 8.70733C134.695 7.37533 136.034 6.31467 137.803 5.52533C139.596 4.736 141.82 4.34133 144.473 4.34133C146.217 4.34133 147.937 4.52633 149.632 4.89633C151.327 5.26633 152.85 5.83367 154.201 6.59833L151.585 12.9253C150.307 12.284 149.067 11.803 147.863 11.4823C146.684 11.1617 145.529 11.0013 144.399 11.0013C143.564 11.0013 142.901 11.0753 142.409 11.2233C141.918 11.3713 141.562 11.5687 141.341 11.8153C141.144 12.062 141.046 12.3333 141.046 12.6293C141.046 13.0733 141.304 13.431 141.82 13.7023C142.336 13.949 143.011 14.1587 143.846 14.3313C144.706 14.504 145.64 14.689 146.647 14.8863C147.679 15.0837 148.698 15.355 149.705 15.7003C150.713 16.0457 151.634 16.502 152.469 17.0693C153.329 17.6367 154.017 18.3767 154.533 19.2893C155.048 20.202 155.306 21.3367 155.306 22.6933C155.306 24.272 154.852 25.7273 153.943 27.0593C153.059 28.3667 151.732 29.4273 149.963 30.2413C148.195 31.0307 145.971 31.4253 143.294 31.4253Z" fill="white"/>
<path d="M158.304 30.8333V4.93333H167V30.8333H158.304Z" fill="white"/>
</svg>
