<svg width="20" height="15" viewBox="0 0 20 15" fill="none" xmlns="http://www.w3.org/2000/svg">
<path d="M0.0625 2.31417C0.188523 1.79878 0.498319 1.33862 0.941152 1.00903C1.38398 0.679438 1.93361 0.499964 2.5 0.5H17.5C18.0664 0.499964 18.616 0.679438 19.0588 1.00903C19.5017 1.33862 19.8115 1.79878 19.9375 2.31417L10 7.983L0.0625 2.31417ZM0 3.6465V11.9345L7.25375 7.7835L0 3.6465ZM8.45125 8.46833L0.23875 13.1665C0.441658 13.5658 0.761908 13.9032 1.16223 14.1392C1.56255 14.3753 2.02647 14.5004 2.5 14.5H17.5C17.9735 14.5001 18.4372 14.3747 18.8373 14.1384C19.2374 13.9022 19.5574 13.5647 19.76 13.1653L11.5475 8.46717L10 9.35033L8.45125 8.46717V8.46833ZM12.7462 7.78467L20 11.9345V3.6465L12.7462 7.7835V7.78467Z" fill="#CCCCCC"/>
</svg>
