<svg width="34" height="20" viewBox="0 0 34 20" fill="none" xmlns="http://www.w3.org/2000/svg">
<path d="M32.9652 1.42536C33.1985 0.650365 32.9652 0.0820312 31.8618 0.0820312H28.2068C27.2768 0.0820312 26.8518 0.573699 26.6185 1.1137C26.6185 1.1137 24.7602 5.64536 22.1268 8.5837C21.2768 9.4387 20.8885 9.7087 20.4252 9.7087C20.1935 9.7087 19.8568 9.4387 19.8568 8.6637V1.42536C19.8568 0.495365 19.5885 0.0820312 18.8135 0.0820312H13.0702C12.4902 0.0820312 12.1402 0.512032 12.1402 0.922031C12.1402 1.80203 13.4568 2.00536 13.5918 4.48536V9.86536C13.5918 11.0437 13.3802 11.2587 12.9135 11.2587C11.6752 11.2587 8.66183 6.71036 6.8735 1.5037C6.52516 0.492031 6.1735 0.0836986 5.24016 0.0836986H1.58683C0.54183 0.0836986 0.333496 0.575365 0.333496 1.11537C0.333496 2.08537 1.57183 6.88536 6.10183 13.2337C9.12183 17.5687 13.3735 19.9187 17.2468 19.9187C19.5685 19.9187 19.8552 19.397 19.8552 18.497V15.2204C19.8552 14.177 20.0768 13.967 20.8118 13.967C21.3518 13.967 22.2818 14.2404 24.4502 16.3287C26.9268 18.8054 27.3368 19.917 28.7285 19.917H32.3818C33.4252 19.917 33.9468 19.3954 33.6468 18.3654C33.3185 17.3404 32.1352 15.8487 30.5652 14.0837C29.7118 13.077 28.4368 11.9937 28.0485 11.452C27.5068 10.7537 27.6635 10.4454 28.0485 9.82536C28.0502 9.82703 32.5018 3.55703 32.9652 1.42536V1.42536Z" fill="white"/>
</svg>
