<svg width="34" height="24" viewBox="0 0 34 24" fill="none" xmlns="http://www.w3.org/2000/svg">
<path d="M32.9884 4.00469C32.7986 3.30036 32.4276 2.65803 31.9123 2.14163C31.3971 1.62524 30.7556 1.25279 30.0517 1.06135C27.4417 0.344687 17.0001 0.33302 17.0001 0.33302C17.0001 0.33302 6.56006 0.321353 3.94839 1.00635C3.24494 1.2066 2.60476 1.58432 2.08934 2.10324C1.57391 2.62217 1.20054 3.26489 1.00506 3.96969C0.316728 6.57969 0.310061 11.993 0.310061 11.993C0.310061 11.993 0.303394 17.433 0.986728 20.0164C1.37006 21.4447 2.49506 22.573 3.92506 22.958C6.56173 23.6747 16.9751 23.6864 16.9751 23.6864C16.9751 23.6864 27.4167 23.698 30.0267 23.0147C30.7309 22.8236 31.373 22.452 31.8895 21.9367C32.406 21.4213 32.779 20.7801 32.9717 20.0764C33.6617 17.468 33.6667 12.0564 33.6667 12.0564C33.6667 12.0564 33.7001 6.61469 32.9884 4.00469V4.00469ZM13.6601 17.008L13.6684 7.00802L22.3467 12.0164L13.6601 17.008V17.008Z" fill="white"/>
</svg>
