<svg width="144" height="144" viewBox="0 0 144 144" fill="none" xmlns="http://www.w3.org/2000/svg">
<circle cx="72" cy="72" r="72" fill="white" fill-opacity="0.1"/>
<path d="M83.6665 66.1665C83.6665 68.9513 82.5603 71.622 80.5911 73.5911C78.622 75.5603 75.9513 76.6665 73.1665 76.6665C70.3817 76.6665 67.711 75.5603 65.7419 73.5911C63.7728 71.622 62.6665 68.9513 62.6665 66.1665C62.6665 63.3817 63.7728 60.711 65.7419 58.7419C67.711 56.7728 70.3817 55.6665 73.1665 55.6665C75.9513 55.6665 78.622 56.7728 80.5911 58.7419C82.5603 60.711 83.6665 63.3817 83.6665 66.1665Z" fill="white"/>
<path fill-rule="evenodd" clip-rule="evenodd" d="M44 72C44 64.5739 46.95 57.452 52.201 52.201C57.452 46.95 64.5739 44 72 44C79.4261 44 86.548 46.95 91.799 52.201C97.05 57.452 100 64.5739 100 72C100 79.4261 97.05 86.548 91.799 91.799C86.548 97.05 79.4261 100 72 100C64.5739 100 57.452 97.05 52.201 91.799C46.95 86.548 44 79.4261 44 72ZM72 47.5C67.3862 47.5002 62.8663 48.8033 58.9604 51.2591C55.0545 53.7149 51.9215 57.2237 49.9219 61.3817C47.9223 65.5396 47.1374 70.1777 47.6575 74.762C48.1776 79.3464 49.9817 83.6907 52.862 87.295C55.347 83.291 60.8175 79 72 79C83.1825 79 88.6495 83.2875 91.138 87.295C94.0183 83.6907 95.8224 79.3464 96.3425 74.762C96.8626 70.1777 96.0777 65.5396 94.0781 61.3817C92.0785 57.2237 88.9455 53.7149 85.0396 51.2591C81.1337 48.8033 76.6138 47.5002 72 47.5Z" fill="white"/>
</svg>
