<svg width="24" height="25" viewBox="0 0 24 25" fill="none" xmlns="http://www.w3.org/2000/svg">
<path d="M4.5 21.5C4.5 21.5 3 21.5 3 20C3 18.5 4.5 14 12 14C19.5 14 21 18.5 21 20C21 21.5 19.5 21.5 19.5 21.5H4.5ZM12 12.5C13.1935 12.5 14.3381 12.0259 15.182 11.182C16.0259 10.3381 16.5 9.19347 16.5 8C16.5 6.80653 16.0259 5.66193 15.182 4.81802C14.3381 3.97411 13.1935 3.5 12 3.5C10.8065 3.5 9.66193 3.97411 8.81802 4.81802C7.97411 5.66193 7.5 6.80653 7.5 8C7.5 9.19347 7.97411 10.3381 8.81802 11.182C9.66193 12.0259 10.8065 12.5 12 12.5Z" fill="#CCCCCC"/>
</svg>
