<svg width="24" height="25" viewBox="0 0 24 25" fill="none" xmlns="http://www.w3.org/2000/svg">
<path d="M2.0625 7.31417C2.18852 6.79878 2.49832 6.33862 2.94115 6.00903C3.38398 5.67944 3.93361 5.49996 4.5 5.5H19.5C20.0664 5.49996 20.616 5.67944 21.0588 6.00903C21.5017 6.33862 21.8115 6.79878 21.9375 7.31417L12 12.983L2.0625 7.31417ZM2 8.6465V16.9345L9.25375 12.7835L2 8.6465ZM10.4513 13.4683L2.23875 18.1665C2.44166 18.5658 2.76191 18.9032 3.16223 19.1392C3.56255 19.3753 4.02647 19.5004 4.5 19.5H19.5C19.9735 19.5001 20.4372 19.3747 20.8373 19.1384C21.2374 18.9022 21.5574 18.5647 21.76 18.1653L13.5475 13.4672L12 14.3503L10.4513 13.4672V13.4683ZM14.7462 12.7847L22 16.9345V8.6465L14.7462 12.7835V12.7847Z" fill="#CCCCCC"/>
</svg>
