<svg width="24" height="25" viewBox="0 0 24 25" fill="none" xmlns="http://www.w3.org/2000/svg">
<path fill-rule="evenodd" clip-rule="evenodd" d="M4.35684 3.13857C4.57556 2.92018 4.83819 2.75077 5.12733 2.64155C5.41648 2.53234 5.72553 2.48583 6.03401 2.5051C6.34249 2.52436 6.64336 2.60897 6.91667 2.7533C7.18998 2.89764 7.42949 3.09841 7.61934 3.34232L9.86309 6.22482C10.2743 6.75357 10.4193 7.44232 10.2568 8.09232L9.57309 10.8298C9.53774 10.9716 9.53965 11.1201 9.57863 11.261C9.61762 11.4018 9.69236 11.5301 9.79559 11.6336L12.8668 14.7048C12.9704 14.8083 13.099 14.8831 13.24 14.9221C13.3811 14.9611 13.5299 14.9629 13.6718 14.9273L16.4081 14.2436C16.7289 14.1634 17.0637 14.1571 17.3872 14.2254C17.7107 14.2936 18.0145 14.4344 18.2756 14.6373L21.1581 16.8798C22.1943 17.6861 22.2893 19.2173 21.3618 20.1436L20.0693 21.4361C19.1443 22.3611 17.7618 22.7673 16.4731 22.3136C13.1746 21.153 10.1797 19.2646 7.71059 16.7886C5.2347 14.3198 3.34635 11.3254 2.18559 8.02732C1.73309 6.73982 2.13934 5.35607 3.06434 4.43107L4.35684 3.13857Z" fill="#CCCCCC"/>
</svg>
